<svg id="Группа_1" data-name="Группа 1" xmlns="http://www.w3.org/2000/svg" width="1189" height="1191" viewBox="0 0 1189 1191">
  <defs>
    <style>
      .cls-1, .cls-2 {
        fill: #74a2d6;
      }

      .cls-2, .cls-3 {
        fill-rule: evenodd;
      }

      .cls-3 {
        fill: #fff;
      }
    </style>
  </defs>
  <rect id="Прямоугольник_1" data-name="Прямоугольник 1" class="cls-1" x="173" y="173" width="839" height="839"/>
  <path id="Прямоугольник_1_копия" data-name="Прямоугольник 1 копия" class="cls-2" d="M594.349,0.163L1186.69,594.349,592.5,1186.69,0.163,592.5Z"/>
  <path id="Прямоугольник_1_копия_2" data-name="Прямоугольник 1 копия 2" class="cls-2" d="M371.682,41.751L1143.4,370.958,814.19,1142.67,42.475,813.466Z"/>
  <path id="Прямоугольник_1_копия_2-2" data-name="Прямоугольник 1 копия 2" class="cls-2" d="M827.058,48.1L1138.74,827.06,359.789,1138.75,48.1,359.791Z"/>
  <path id="Прямоугольник_2" data-name="Прямоугольник 2" class="cls-3" d="M920.8,461.57L564.992,816.83a65.589,65.589,0,0,1-92.658,0l-0.927-.925a65.347,65.347,0,0,1,0-92.516l355.809-355.26a65.589,65.589,0,0,1,92.658,0l0.927,0.925A65.347,65.347,0,0,1,920.8,461.57Z"/>
  <path id="Прямоугольник_2_копия" data-name="Прямоугольник 2 копия" class="cls-3" d="M433.355,591.311L564.628,723.055a65.354,65.354,0,0,1-.208,92.519l-0.929.923a65.583,65.583,0,0,1-92.654-.258L339.565,684.5a65.355,65.355,0,0,1,.208-92.52l0.929-.923A65.583,65.583,0,0,1,433.355,591.311Z"/>
</svg>
